<?xml version="1.0" standalone="no"?>
<!DOCTYPE svg PUBLIC "-//W3C//DTD SVG 20010904//EN"
 "http://www.w3.org/TR/2001/REC-SVG-20010904/DTD/svg10.dtd">
<svg version="1.0" xmlns="http://www.w3.org/2000/svg"
 width="512.000000pt" height="512.000000pt" viewBox="0 0 512.000000 512.000000"
 preserveAspectRatio="xMidYMid meet">
<metadata>
Created by potrace 1.14, written by Peter Selinger 2001-2017
</metadata>
<g transform="translate(0.000000,512.000000) scale(0.100000,-0.100000)"
fill="#000000" stroke="none">
<path d="M284 5100 c-134 -35 -209 -101 -257 -227 l-22 -58 -2 -2230 c-2
-1486 1 -2245 8 -2275 16 -70 63 -161 104 -202 47 -46 123 -83 200 -97 41 -8
727 -11 2260 -11 1847 0 2208 3 2252 14 154 41 236 124 277 282 14 53 15 290
13 2289 l-2 2230 -23 62 c-28 73 -96 154 -156 185 -22 12 -68 29 -101 39 -57
18 -159 19 -2270 18 -2118 0 -2213 -1 -2281 -19z"/>
</g>
</svg>
