<?xml version="1.0" standalone="no"?>
<!DOCTYPE svg PUBLIC "-//W3C//DTD SVG 20010904//EN"
 "http://www.w3.org/TR/2001/REC-SVG-20010904/DTD/svg10.dtd">
<svg version="1.0" xmlns="http://www.w3.org/2000/svg"
 width="512.000000pt" height="512.000000pt" viewBox="0 0 512.000000 512.000000"
 preserveAspectRatio="xMidYMid meet">
<metadata>
Created by potrace 1.14, written by Peter Selinger 2001-2017
</metadata>
<g transform="translate(0.000000,512.000000) scale(0.100000,-0.100000)"
fill="#000000" stroke="none">
<path d="M489 5116 c-2 -2 -24 -6 -49 -9 -182 -24 -322 -112 -385 -241 -57
-118 -54 22 -54 -2307 l-1 -2145 24 -78 c42 -135 109 -214 231 -271 144 -68
10 -64 2310 -64 2001 0 2083 0 2164 18 211 48 335 163 375 352 12 53 14 412
15 2194 1 2121 1 2131 -20 2205 -36 134 -106 221 -221 278 -146 72 41 66
-2289 69 -1153 2 -2098 1 -2100 -1z"/>
</g>
</svg>
